<svg version="1.1" id="Layer_1" xmlns="http://www.w3.org/2000/svg" xmlns:xlink="http://www.w3.org/1999/xlink" x="0px" y="0px"
	 viewBox="0 0 1000 1000" style="enable-background:new 0 0 1000 1000;" xml:space="preserve">
<style type="text/css">
	.st0{fill:#231F20;}
	.st1{fill:#E2E7D4;}
	.st2{fill:#FFCD1C;}
</style>
<rect class="st0" width="1000" height="1000"/>
<g>
	<g>
		<g>
			<polygon class="st1" points="130.3,478.3 114.2,478.3 114.2,478.3 114.2,478.3 98.1,478.3 82,478.3 82,487.6 82,496.9 82,506.2
				82,515.5 82,524.8 82,534.1 82,543.4 98.1,543.4 114.2,543.4 130.3,543.4 146.4,543.4 146.4,534.1 146.4,524.8 146.4,515.5
				146.4,506.2 146.4,496.9 146.4,487.6 146.4,478.3 			"/>
			<polygon class="st1" points="259.2,478.3 243.1,478.3 243.1,478.3 243.1,478.3 226.9,478.3 210.8,478.3 210.8,487.6 210.8,496.9
				210.8,506.2 210.8,515.5 210.8,524.8 210.8,534.1 210.8,543.4 226.9,543.4 243.1,543.4 259.2,543.4 275.3,543.4 275.3,534.1
				275.3,524.8 275.3,515.5 275.3,506.2 275.3,496.9 275.3,487.6 275.3,478.3 			"/>
			<polygon class="st1" points="388,478.3 371.9,478.3 371.9,478.3 371.9,478.3 355.8,478.3 339.7,478.3 339.7,487.6 339.7,496.9
				339.7,506.2 339.7,515.5 339.7,524.8 339.7,534.1 339.7,543.4 355.8,543.4 371.9,543.4 388,543.4 404.1,543.4 404.1,534.1
				404.1,524.8 404.1,515.5 404.1,506.2 404.1,496.9 404.1,487.6 404.1,478.3 			"/>
			<polygon class="st1" points="516.8,478.3 500.7,478.3 500.7,478.3 500.7,478.3 484.6,478.3 468.5,478.3 468.5,487.6 468.5,496.9
				468.5,506.2 468.5,515.5 468.5,524.8 468.5,534.1 468.5,543.4 484.6,543.4 500.7,543.4 516.8,543.4 532.9,543.4 532.9,534.1
				532.9,524.8 532.9,515.5 532.9,506.2 532.9,496.9 532.9,487.6 532.9,478.3 			"/>
			<polygon class="st1" points="581.3,478.3 565.2,478.3 565.2,478.3 565.2,478.3 549.1,478.3 532.9,478.3 532.9,487.6 532.9,496.9
				532.9,506.2 532.9,515.5 532.9,524.8 532.9,534.1 532.9,543.4 549.1,543.4 565.2,543.4 581.3,543.4 597.4,543.4 597.4,534.1
				597.4,524.8 597.4,515.5 597.4,506.2 597.4,496.9 597.4,487.6 597.4,478.3 			"/>
			<polygon class="st1" points="645.7,478.3 629.6,478.3 629.6,478.3 629.6,478.3 613.5,478.3 597.4,478.3 597.4,487.6 597.4,496.9
				597.4,506.2 597.4,515.5 597.4,524.8 597.4,534.1 597.4,543.4 613.5,543.4 629.6,543.4 645.7,543.4 661.8,543.4 661.8,534.1
				661.8,524.8 661.8,515.5 661.8,506.2 661.8,496.9 661.8,487.6 661.8,478.3 			"/>
			<polygon class="st1" points="774.5,478.3 758.4,478.3 758.4,478.3 758.4,478.3 742.3,478.3 726.2,478.3 726.2,487.6 726.2,496.9
				726.2,506.2 726.2,515.5 726.2,524.8 726.2,534.1 726.2,543.4 742.3,543.4 758.4,543.4 774.5,543.4 790.6,543.4 790.6,534.1
				790.6,524.8 790.6,515.5 790.6,506.2 790.6,496.9 790.6,487.6 790.6,478.3 			"/>
			<polygon class="st2" points="903.4,478.3 887.3,478.3 887.3,478.3 887.3,478.3 871.2,478.3 855.1,478.3 855.1,487.6 855.1,496.9
				855.1,506.2 855.1,515.5 855.1,524.8 855.1,534.1 855.1,543.4 871.2,543.4 887.3,543.4 903.4,543.4 919.5,543.4 919.5,534.1
				919.5,524.8 919.5,515.5 919.5,506.2 919.5,496.9 919.5,487.6 919.5,478.3 			"/>
			<polygon class="st1" points="130.3,413.2 114.2,413.2 114.2,413.2 114.2,413.2 98.1,413.2 82,413.2 82,422.5 82,431.8 82,441.1
				82,450.4 82,459.7 82,469 82,478.3 98.1,478.3 114.2,478.3 130.3,478.3 146.4,478.3 146.4,469 146.4,459.7 146.4,450.4
				146.4,441.1 146.4,431.8 146.4,422.5 146.4,413.2 			"/>
			<polygon class="st1" points="259.2,413.2 243.1,413.2 243.1,413.2 243.1,413.2 226.9,413.2 210.8,413.2 210.8,422.5 210.8,431.8
				210.8,441.1 210.8,450.4 210.8,459.7 210.8,469 210.8,478.3 226.9,478.3 243.1,478.3 259.2,478.3 275.3,478.3 275.3,469
				275.3,459.7 275.3,450.4 275.3,441.1 275.3,431.8 275.3,422.5 275.3,413.2 			"/>
			<polygon class="st1" points="388,413.2 371.9,413.2 371.9,413.2 371.9,413.2 355.8,413.2 339.7,413.2 339.7,422.5 339.7,431.8
				339.7,441.1 339.7,450.4 339.7,459.7 339.7,469 339.7,478.3 355.8,478.3 371.9,478.3 388,478.3 404.1,478.3 404.1,469
				404.1,459.7 404.1,450.4 404.1,441.1 404.1,431.8 404.1,422.5 404.1,413.2 			"/>
			<polygon class="st1" points="516.8,413.2 500.7,413.2 500.7,413.2 500.7,413.2 484.6,413.2 468.5,413.2 468.5,422.5 468.5,431.8
				468.5,441.1 468.5,450.4 468.5,459.7 468.5,469 468.5,478.3 484.6,478.3 500.7,478.3 516.8,478.3 532.9,478.3 532.9,469
				532.9,459.7 532.9,450.4 532.9,441.1 532.9,431.8 532.9,422.5 532.9,413.2 			"/>
			<polygon class="st1" points="645.7,413.2 629.6,413.2 629.6,413.2 629.6,413.2 613.5,413.2 597.4,413.2 597.4,422.5 597.4,431.8
				597.4,441.1 597.4,450.4 597.4,459.7 597.4,469 597.4,478.3 613.5,478.3 629.6,478.3 645.7,478.3 661.8,478.3 661.8,469
				661.8,459.7 661.8,450.4 661.8,441.1 661.8,431.8 661.8,422.5 661.8,413.2 			"/>
			<polygon class="st1" points="774.5,413.2 758.4,413.2 758.4,413.2 758.4,413.2 742.3,413.2 726.2,413.2 726.2,422.5 726.2,431.8
				726.2,441.1 726.2,450.4 726.2,459.7 726.2,469 726.2,478.3 742.3,478.3 758.4,478.3 774.5,478.3 790.6,478.3 790.6,469
				790.6,459.7 790.6,450.4 790.6,441.1 790.6,431.8 790.6,422.5 790.6,413.2 			"/>
			<polygon class="st1" points="130.3,348.1 114.2,348.1 114.2,348.1 114.2,348.1 98.1,348.1 82,348.1 82,357.4 82,366.7 82,376
				82,385.3 82,394.6 82,403.9 82,413.2 98.1,413.2 114.2,413.2 130.3,413.2 146.4,413.2 146.4,403.9 146.4,394.6 146.4,385.3
				146.4,376 146.4,366.7 146.4,357.4 146.4,348.1 			"/>
			<polygon class="st1" points="259.2,348.1 243.1,348.1 243.1,348.1 243.1,348.1 226.9,348.1 210.8,348.1 210.8,357.4 210.8,366.7
				210.8,376 210.8,385.3 210.8,394.6 210.8,403.9 210.8,413.2 226.9,413.2 243.1,413.2 259.2,413.2 275.3,413.2 275.3,403.9
				275.3,394.6 275.3,385.3 275.3,376 275.3,366.7 275.3,357.4 275.3,348.1 			"/>
			<polygon class="st1" points="388,348.1 371.9,348.1 371.9,348.1 371.9,348.1 355.8,348.1 339.7,348.1 339.7,357.4 339.7,366.7
				339.7,376 339.7,385.3 339.7,394.6 339.7,403.9 339.7,413.2 355.8,413.2 371.9,413.2 388,413.2 404.1,413.2 404.1,403.9
				404.1,394.6 404.1,385.3 404.1,376 404.1,366.7 404.1,357.4 404.1,348.1 			"/>
			<polygon class="st1" points="516.8,348.1 500.7,348.1 500.7,348.1 500.7,348.1 484.6,348.1 468.5,348.1 468.5,357.4 468.5,366.7
				468.5,376 468.5,385.3 468.5,394.6 468.5,403.9 468.5,413.2 484.6,413.2 500.7,413.2 516.8,413.2 532.9,413.2 532.9,403.9
				532.9,394.6 532.9,385.3 532.9,376 532.9,366.7 532.9,357.4 532.9,348.1 			"/>
			<polygon class="st1" points="645.7,348.1 629.6,348.1 629.6,348.1 629.6,348.1 613.5,348.1 597.4,348.1 597.4,357.4 597.4,366.7
				597.4,376 597.4,385.3 597.4,394.6 597.4,403.9 597.4,413.2 613.5,413.2 629.6,413.2 645.7,413.2 661.8,413.2 661.8,403.9
				661.8,394.6 661.8,385.3 661.8,376 661.8,366.7 661.8,357.4 661.8,348.1 			"/>
			<polygon class="st1" points="774.5,348.1 758.4,348.1 758.4,348.1 758.4,348.1 742.3,348.1 726.2,348.1 726.2,357.4 726.2,366.7
				726.2,376 726.2,385.3 726.2,394.6 726.2,403.9 726.2,413.2 742.3,413.2 758.4,413.2 774.5,413.2 790.6,413.2 790.6,403.9
				790.6,394.6 790.6,385.3 790.6,376 790.6,366.7 790.6,357.4 790.6,348.1 			"/>
			<polygon class="st1" points="130.3,283 114.2,283 114.2,283 114.2,283 98.1,283 82,283 82,292.3 82,301.6 82,310.9 82,320.2
				82,329.5 82,338.8 82,348.1 98.1,348.1 114.2,348.1 130.3,348.1 146.4,348.1 146.4,338.8 146.4,329.5 146.4,320.2 146.4,310.9
				146.4,301.6 146.4,292.3 146.4,283 			"/>
			<polygon class="st1" points="194.7,283 178.6,283 178.6,283 178.6,283 162.5,283 146.4,283 146.4,292.3 146.4,301.6 146.4,310.9
				146.4,320.2 146.4,329.5 146.4,338.8 146.4,348.1 162.5,348.1 178.6,348.1 194.7,348.1 210.8,348.1 210.8,338.8 210.8,329.5
				210.8,320.2 210.8,310.9 210.8,301.6 210.8,292.3 210.8,283 			"/>
			<polygon class="st1" points="259.2,283 243.1,283 243.1,283 243.1,283 226.9,283 210.8,283 210.8,292.3 210.8,301.6 210.8,310.9
				210.8,320.2 210.8,329.5 210.8,338.8 210.8,348.1 226.9,348.1 243.1,348.1 259.2,348.1 275.3,348.1 275.3,338.8 275.3,329.5
				275.3,320.2 275.3,310.9 275.3,301.6 275.3,292.3 275.3,283 			"/>
			<polygon class="st1" points="323.6,283 307.5,283 307.5,283 307.5,283 291.4,283 275.3,283 275.3,292.3 275.3,301.6 275.3,310.9
				275.3,320.2 275.3,329.5 275.3,338.8 275.3,348.1 291.4,348.1 307.5,348.1 323.6,348.1 339.7,348.1 339.7,338.8 339.7,329.5
				339.7,320.2 339.7,310.9 339.7,301.6 339.7,292.3 339.7,283 			"/>
			<polygon class="st1" points="388,283 371.9,283 371.9,283 371.9,283 355.8,283 339.7,283 339.7,292.3 339.7,301.6 339.7,310.9
				339.7,320.2 339.7,329.5 339.7,338.8 339.7,348.1 355.8,348.1 371.9,348.1 388,348.1 404.1,348.1 404.1,338.8 404.1,329.5
				404.1,320.2 404.1,310.9 404.1,301.6 404.1,292.3 404.1,283 			"/>
			<polygon class="st1" points="516.8,283 500.7,283 500.7,283 500.7,283 484.6,283 468.5,283 468.5,292.3 468.5,301.6 468.5,310.9
				468.5,320.2 468.5,329.5 468.5,338.8 468.5,348.1 484.6,348.1 500.7,348.1 516.8,348.1 532.9,348.1 532.9,338.8 532.9,329.5
				532.9,320.2 532.9,310.9 532.9,301.6 532.9,292.3 532.9,283 			"/>
			<polygon class="st1" points="645.7,283 629.6,283 629.6,283 629.6,283 613.5,283 597.4,283 597.4,292.3 597.4,301.6 597.4,310.9
				597.4,320.2 597.4,329.5 597.4,338.8 597.4,348.1 613.5,348.1 629.6,348.1 645.7,348.1 661.8,348.1 661.8,338.8 661.8,329.5
				661.8,320.2 661.8,310.9 661.8,301.6 661.8,292.3 661.8,283 			"/>
			<polygon class="st1" points="710.1,283 694,283 694,283 694,283 677.9,283 661.8,283 661.8,292.3 661.8,301.6 661.8,310.9
				661.8,320.2 661.8,329.5 661.8,338.8 661.8,348.1 677.9,348.1 694,348.1 710.1,348.1 726.2,348.1 726.2,338.8 726.2,329.5
				726.2,320.2 726.2,310.9 726.2,301.6 726.2,292.3 726.2,283 			"/>
			<polygon class="st1" points="774.5,283 758.4,283 758.4,283 758.4,283 742.3,283 726.2,283 726.2,292.3 726.2,301.6 726.2,310.9
				726.2,320.2 726.2,329.5 726.2,338.8 726.2,348.1 742.3,348.1 758.4,348.1 774.5,348.1 790.6,348.1 790.6,338.8 790.6,329.5
				790.6,320.2 790.6,310.9 790.6,301.6 790.6,292.3 790.6,283 			"/>
		</g>
		<g>
			<path class="st1" d="M505.3,716.8v-14.7c0-5.6-1.4-8.5-5.8-8.5c-4.4,0-6.7,3-6.7,8.9v14.3H487v-14.7c0-5.6-1.4-8.5-5.8-8.5
				c-4.4,0-6.7,3-6.7,8.9v14.3h-5.7v-28.1h5.7v3c2.1-2.4,4.3-3.5,7.7-3.5c3.8,0,7.3,1.5,9,5.2c2.7-4.1,6.1-5.2,9.3-5.2
				c6.3,0,10.5,3.9,10.5,12.7v15.9H505.3z"/>
			<path class="st1" d="M522.4,716.8v-28.1h5.7v28.1H522.4z M528.1,682.4h-5.8v-5.8h5.8V682.4z"/>
			<path class="st1" d="M559.6,716.8v-14.7c0-5.6-2.2-8.5-6.9-8.5c-4.8,0-7.2,3.1-7.2,8.9v14.3h-5.7v-28.1h5.7v3
				c1.9-2.1,4.2-3.5,8.2-3.5c6.7,0,11.6,3.9,11.6,12.7v15.9H559.6z"/>
			<path class="st1" d="M598.9,716.8v-3.3c-2.4,2.8-5.6,4.1-9.4,4.1c-8.3,0-14.8-6.4-14.8-14.7c0-8.3,6.6-14.7,14.8-14.7
				c3.8,0,7,1.4,9.4,4.1v-19.3h5.7v43.8H598.9z M589.5,693.6c-5.3,0-9.2,4.1-9.2,9.3c0,5.3,4,9.3,9.2,9.3c5.4,0,9.3-4.3,9.3-9.3
				C598.7,697.9,594.8,693.6,589.5,693.6z"/>
			<path class="st1" d="M617.1,709.6c2.8,2.3,5.9,2.9,7.9,2.9c3,0,4.7-1.3,4.7-3.2c0-5.6-14.6-2.1-14.6-12.2c0-5.1,3.8-8.8,9.6-8.8
				c2.4,0,6.3,0.6,9.5,3.2l-3,4.2c-2.5-1.8-5-2.2-6.4-2.2c-2.8,0-4.1,1.4-4.1,3c0,5.3,14.5,2.4,14.5,12.5c0,5.4-4.1,8.7-10.4,8.7
				c-4.2,0-7.9-1.5-10.8-3.7L617.1,709.6z"/>
			<path class="st1" d="M664.8,716.8v-14.7c0-5.6-2.2-8.5-6.9-8.5c-4.8,0-7.2,3.1-7.2,8.9v14.3h-5.7v-43.8h5.7v18.7
				c1.9-2.1,4.2-3.5,8.2-3.5c6.7,0,11.6,3.9,11.6,12.7v15.9H664.8z"/>
			<path class="st1" d="M704.1,716.8v-3.3c-2.4,2.8-5.6,4.1-9.4,4.1c-8.3,0-14.8-6.4-14.8-14.7c0-8.3,6.6-14.7,14.8-14.7
				c3.8,0,7,1.4,9.4,4.1v-3.6h5.7v28.1H704.1z M694.7,693.6c-5.3,0-9.2,4.1-9.2,9.3c0,5.3,4,9.3,9.2,9.3c5.4,0,9.3-4.3,9.3-9.3
				C703.9,697.9,700,693.6,694.7,693.6z"/>
			<path class="st1" d="M721.6,716.8v-28.1h5.7v3.4c2.7-3.3,5.5-3.9,10.9-3.9v5.4c-9.3,0-10.9,3.8-10.9,8.6v14.5H721.6z"/>
			<path class="st1" d="M749.6,704.8c0.8,4.3,4.3,7.6,9.1,7.6c3.1,0,6.1-1.4,7.9-3.8l4,3.1c-2.6,3.7-7,5.9-11.9,5.9
				c-8.2,0-14.7-6.4-14.7-14.7c0-7.9,6-14.7,14.4-14.7c8.3,0,14.4,6.8,14.4,14.7c0,0.8-0.1,1.4-0.1,2H749.6z M766.9,700.3
				c-0.7-3.9-4.1-6.9-8.5-6.9c-4.4,0-7.6,3-8.6,6.9H766.9z"/>
			<path class="st1" d="M814.4,717.2c-0.9,0.2-2,0.4-3.1,0.4c-4.6,0-7.5-2.8-7.5-7.9v-36.6h5.7v34.8c0,3,0.7,4.4,3.5,4.4
				c0.4,0,0.9,0,1.4-0.1V717.2z"/>
			<path class="st1" d="M844.2,716.8v-3.3c-2.4,2.8-5.6,4.1-9.4,4.1c-8.3,0-14.8-6.4-14.8-14.7c0-8.3,6.6-14.7,14.8-14.7
				c3.8,0,7,1.4,9.4,4.1v-3.6h5.7v28.1H844.2z M834.8,693.6c-5.3,0-9.2,4.1-9.2,9.3c0,5.3,4,9.3,9.2,9.3c5.4,0,9.3-4.3,9.3-9.3
				C844.1,697.9,840.1,693.6,834.8,693.6z"/>
			<path class="st1" d="M861.7,716.8v-43.8h5.7v19.3c2.4-2.8,5.6-4.1,9.4-4.1c8.2,0,14.8,6.4,14.8,14.7c0,8.2-6.5,14.7-14.8,14.7
				c-3.8,0-7-1.3-9.4-4.1v3.3H861.7z M876.7,712.3c5.3,0,9.3-4.1,9.3-9.3c0-5.2-4-9.3-9.2-9.3c-5.3,0-9.2,4.1-9.2,9.3
				C867.6,708,871.3,712.3,876.7,712.3z"/>
			<path class="st1" d="M901.9,709.6c2.8,2.3,5.9,2.9,7.9,2.9c3,0,4.7-1.3,4.7-3.2c0-5.6-14.6-2.1-14.6-12.2c0-5.1,3.8-8.8,9.6-8.8
				c2.4,0,6.3,0.6,9.5,3.2l-3,4.2c-2.5-1.8-5-2.2-6.4-2.2c-2.8,0-4.1,1.4-4.1,3c0,5.3,14.5,2.4,14.5,12.5c0,5.4-4.1,8.7-10.4,8.7
				c-4.2,0-7.9-1.5-10.8-3.7L901.9,709.6z"/>
		</g>
		<polygon class="st1" points="774.5,478.3 758.4,478.3 758.4,478.3 758.4,478.3 742.3,478.3 726.2,478.3 726.2,487.6 726.2,496.9
			726.2,506.2 726.2,515.5 726.2,524.8 726.2,534.1 726.2,543.4 742.3,543.4 758.4,543.4 774.5,543.4 790.6,543.4 790.6,534.1
			790.6,524.8 790.6,515.5 790.6,506.2 790.6,496.9 790.6,487.6 790.6,478.3 		"/>
		<polygon class="st2" points="903.4,478.3 887.3,478.3 887.3,478.3 887.3,478.3 871.2,478.3 855.1,478.3 855.1,487.6 855.1,496.9
			855.1,506.2 855.1,515.5 855.1,524.8 855.1,534.1 855.1,543.4 871.2,543.4 887.3,543.4 903.4,543.4 919.5,543.4 919.5,534.1
			919.5,524.8 919.5,515.5 919.5,506.2 919.5,496.9 919.5,487.6 919.5,478.3 		"/>
		<polygon class="st1" points="774.5,413.2 758.4,413.2 758.4,413.2 758.4,413.2 742.3,413.2 726.2,413.2 726.2,422.5 726.2,431.8
			726.2,441.1 726.2,450.4 726.2,459.7 726.2,469 726.2,478.3 742.3,478.3 758.4,478.3 774.5,478.3 790.6,478.3 790.6,469
			790.6,459.7 790.6,450.4 790.6,441.1 790.6,431.8 790.6,422.5 790.6,413.2 		"/>
		<polygon class="st1" points="774.5,348.1 758.4,348.1 758.4,348.1 758.4,348.1 742.3,348.1 726.2,348.1 726.2,357.4 726.2,366.7
			726.2,376 726.2,385.3 726.2,394.6 726.2,403.9 726.2,413.2 742.3,413.2 758.4,413.2 774.5,413.2 790.6,413.2 790.6,403.9
			790.6,394.6 790.6,385.3 790.6,376 790.6,366.7 790.6,357.4 790.6,348.1 		"/>
		<polygon class="st1" points="710.1,283 694,283 694,283 694,283 677.9,283 661.8,283 661.8,292.3 661.8,301.6 661.8,310.9
			661.8,320.2 661.8,329.5 661.8,338.8 661.8,348.1 677.9,348.1 694,348.1 710.1,348.1 726.2,348.1 726.2,338.8 726.2,329.5
			726.2,320.2 726.2,310.9 726.2,301.6 726.2,292.3 726.2,283 		"/>
		<polygon class="st1" points="774.5,283 758.4,283 758.4,283 758.4,283 742.3,283 726.2,283 726.2,292.3 726.2,301.6 726.2,310.9
			726.2,320.2 726.2,329.5 726.2,338.8 726.2,348.1 742.3,348.1 758.4,348.1 774.5,348.1 790.6,348.1 790.6,338.8 790.6,329.5
			790.6,320.2 790.6,310.9 790.6,301.6 790.6,292.3 790.6,283 		"/>
	</g>
</g>
</svg>
